<?xml version="1.0" encoding="utf-8"?>
<!-- Generator: Adobe Illustrator 22.0.1, SVG Export Plug-In . SVG Version: 6.00 Build 0)  -->
<svg version="1.1" id="레이어_1" xmlns="http://www.w3.org/2000/svg" xmlns:xlink="http://www.w3.org/1999/xlink" x="0px"
	 y="0px" viewBox="0 0 131.6 100.3" style="enable-background:new 0 0 131.6 100.3;" xml:space="preserve">
<g>
	<path d="M120.6,16.2H95.1L88.3,3.6c0,0,0-0.1-0.1-0.1C87.1,1.4,84.5,0,82.1,0H49.5c-2.4,0-4.9,1.4-6.1,3.5c0,0,0,0.1-0.1,0.1
		l-6.8,12.6H11c-6,0-11,4.9-11,11v62.2c0,6,4.9,11,11,11h109.7c6.1,0,11-4.9,11-11V27.2C131.6,21.1,126.7,16.2,120.6,16.2z
		 M49.3,7.1C49.4,7.1,49.5,7,49.6,7H82c0.1,0,0.2,0.1,0.2,0.1l4.9,9.1H44.4L49.3,7.1z M124.6,89.4c0,2.2-1.8,4-4,4H11
		c-2.2,0-4-1.8-4-4V27.2c0-2.2,1.8-4,4-4h29.6h50.5h29.6c2.2,0,4,1.8,4,4V89.4z"/>
	<path d="M65.8,28c-16.7,0-30.3,13.6-30.3,30.3c0,16.7,13.6,30.3,30.3,30.3c16.7,0,30.3-13.6,30.3-30.3C96.1,41.6,82.5,28,65.8,28z
		 M65.8,81.6c-12.8,0-23.3-10.4-23.3-23.3C42.5,45.4,53,35,65.8,35c12.8,0,23.3,10.4,23.3,23.3C89.1,71.1,78.6,81.6,65.8,81.6z"/>
	<path d="M65.8,42c-9,0-16.3,7.3-16.3,16.3c0,9,7.3,16.3,16.3,16.3c9,0,16.3-7.3,16.3-16.3C82.1,49.3,74.8,42,65.8,42z M60.8,59.6
		c-3.3,0-6-2.7-6-6c0-3.3,2.7-6,6-6c3.3,0,6,2.7,6,6C66.8,56.9,64.1,59.6,60.8,59.6z M73,68.2c-1.6,0-2.8-1.3-2.8-2.8
		c0-1.6,1.3-2.8,2.8-2.8c1.6,0,2.8,1.3,2.8,2.8C75.8,66.9,74.5,68.2,73,68.2z"/>
</g>
</svg>
